<?xml version="1.0" encoding="UTF-8"?>
<svg xmlns="http://www.w3.org/2000/svg" xmlns:xlink="http://www.w3.org/1999/xlink" width="48px" height="48px" viewBox="0 0 48 48" version="1.1">
<defs>
<linearGradient id="linear0" gradientUnits="userSpaceOnUse" x1="120" y1="240" x2="120" y2="0" gradientTransform="matrix(0.2,0,0,0.2,0,0)">
<stop offset="0" style="stop-color:rgb(11.372549%,57.647059%,82.352941%);stop-opacity:1;"/>
<stop offset="1" style="stop-color:rgb(21.960784%,69.019608%,89.019608%);stop-opacity:1;"/>
</linearGradient>
</defs>
<g id="surface1">
<path style=" stroke:none;fill-rule:nonzero;fill:url(#linear0);" d="M 48 24 C 48 37.253906 37.253906 48 24 48 C 10.746094 48 0 37.253906 0 24 C 0 10.746094 10.746094 0 24 0 C 37.253906 0 48 10.746094 48 24 Z M 48 24 "/>
<path style=" stroke:none;fill-rule:nonzero;fill:rgb(78.431373%,85.490196%,91.764706%);fill-opacity:1;" d="M 16.246094 25.753906 L 19.09375 33.636719 C 19.09375 33.636719 19.449219 34.371094 19.832031 34.371094 C 20.210938 34.371094 25.882812 28.472656 25.882812 28.472656 L 32.1875 16.296875 L 16.347656 23.71875 Z M 16.246094 25.753906 "/>
<path style=" stroke:none;fill-rule:nonzero;fill:rgb(66.27451%,77.647059%,84.705882%);fill-opacity:1;" d="M 20.019531 27.777344 L 19.472656 33.585938 C 19.472656 33.585938 19.246094 35.363281 21.027344 33.585938 C 22.804688 31.804688 24.507812 30.433594 24.507812 30.433594 "/>
<path style=" stroke:none;fill-rule:nonzero;fill:rgb(100%,100%,100%);fill-opacity:1;" d="M 16.296875 26.035156 L 10.441406 24.128906 C 10.441406 24.128906 9.738281 23.84375 9.964844 23.199219 C 10.011719 23.066406 10.105469 22.953125 10.386719 22.757812 C 11.683594 21.855469 34.40625 13.6875 34.40625 13.6875 C 34.40625 13.6875 35.046875 13.472656 35.425781 13.613281 C 35.617188 13.671875 35.761719 13.832031 35.804688 14.027344 C 35.84375 14.195312 35.863281 14.367188 35.855469 14.542969 C 35.851562 14.691406 35.835938 14.832031 35.820312 15.050781 C 35.683594 17.285156 31.539062 33.949219 31.539062 33.949219 C 31.539062 33.949219 31.292969 34.925781 30.40625 34.957031 C 29.964844 34.972656 29.535156 34.808594 29.21875 34.5 C 27.476562 33 21.457031 28.953125 20.125 28.066406 C 20.066406 28.023438 20.023438 27.957031 20.015625 27.882812 C 19.996094 27.789062 20.101562 27.675781 20.101562 27.675781 C 20.101562 27.675781 30.585938 18.355469 30.863281 17.375 C 30.886719 17.300781 30.804688 17.261719 30.695312 17.296875 C 29.996094 17.550781 17.925781 25.175781 16.59375 26.019531 C 16.496094 26.046875 16.394531 26.054688 16.296875 26.035156 Z M 16.296875 26.035156 "/>
</g>
</svg>
