<?xml version="1.0" encoding="UTF-8"?>
<svg xmlns="http://www.w3.org/2000/svg" xmlns:xlink="http://www.w3.org/1999/xlink" width="48px" height="48px" viewBox="0 0 48 48" version="1.1">
<g id="surface1">
<path style=" stroke:none;fill-rule:nonzero;fill:rgb(0%,46.666667%,100%);fill-opacity:1;" d="M 0 23.039062 C 0 12.179688 0 6.75 3.375 3.375 C 6.75 0 12.179688 0 23.039062 0 L 24.960938 0 C 35.820312 0 41.25 0 44.625 3.375 C 48 6.75 48 12.179688 48 23.039062 L 48 24.960938 C 48 35.820312 48 41.25 44.625 44.625 C 41.25 48 35.820312 48 24.960938 48 L 23.039062 48 C 12.179688 48 6.75 48 3.375 44.625 C 0 41.25 0 35.820312 0 24.960938 Z M 0 23.039062 "/>
<path style=" stroke:none;fill-rule:nonzero;fill:rgb(100%,100%,100%);fill-opacity:1;" d="M 25.539062 34.582031 C 14.601562 34.582031 8.359375 27.082031 8.101562 14.601562 L 13.582031 14.601562 C 13.761719 23.761719 17.800781 27.640625 21 28.441406 L 21 14.601562 L 26.160156 14.601562 L 26.160156 22.5 C 29.320312 22.160156 32.640625 18.558594 33.761719 14.601562 L 38.917969 14.601562 C 38.058594 19.480469 34.460938 23.082031 31.898438 24.558594 C 34.460938 25.761719 38.558594 28.898438 40.121094 34.582031 L 34.441406 34.582031 C 33.21875 30.78125 30.179688 27.839844 26.160156 27.441406 L 26.160156 34.582031 Z M 25.539062 34.582031 "/>
</g>
</svg>
